<?xml version="1.0" encoding="utf-8"?><svg xmlns="http://www.w3.org/2000/svg" xmlns:xlink="http://www.w3.org/1999/xlink"><symbol viewBox="0 0 63 61" id="author-review" xmlns="http://www.w3.org/2000/svg"><defs><path id="aa" d="M574 4570.998h-2v5c0 .206-.021.41-.06.605-.029.136-.077.263-.123.392-.02.058-.03.117-.053.17-.048.115-.115.22-.176.327-.035.06-.061.126-.1.184a3.075 3.075 0 0 1-.334.403c-.012.013-.02.029-.033.04a2.982 2.982 0 0 1-2.084.876l-.037.002a2.985 2.985 0 0 1-2.121-.878l-7.122-7.121H532a3 3 0 0 1-3-3v-30a3 3 0 0 1 3-3h42a3 3 0 0 1 3 3v30a3 3 0 0 1-3 3zm-15.485 3l6.326 6.327.008-.008a5.968 5.968 0 0 0 4.151 1.682v2a3 3 0 0 1-3 2.999h-31.757l-8.122 8.122a2.992 2.992 0 0 1-2.121.879c-.013 0-.024-.004-.037-.004a2.994 2.994 0 0 1-2.084-.875c-.013-.013-.021-.029-.033-.041a2.928 2.928 0 0 1-.334-.404c-.039-.057-.064-.123-.1-.183-.061-.108-.128-.212-.176-.326-.023-.054-.033-.114-.053-.17-.046-.13-.094-.257-.122-.394a3.005 3.005 0 0 1-.06-.605v-6h-4.005A3 3 0 0 1 514 4584v-34.001a3 3 0 0 1 3-3h9v21a6 6 0 0 0 6 6z"/></defs><use xlink:href="#aa" transform="translate(-514 -4535)"/></symbol><symbol viewBox="0 0 16 15" id="blog-comment" xmlns="http://www.w3.org/2000/svg"><defs><path id="ba" d="M437.416 9121.358c-.573 0-1.134-.165-1.676-.243-2.191 2.77-5.647 2.225-5.647 2.225 2.44-1.155 2.391-3.069 1.957-3.324-1.916-1.126-3.068-2.84-3.068-4.76 0-3.391 3.727-6.14 8.434-6.14 4.708 0 7.577 2.749 7.577 6.14 0 3.391-2.869 6.102-7.577 6.102zm-4.174-7.483a1.5 1.5 0 1 0 0 3 1.5 1.5 0 0 0 0-3zm3.75 0a1.5 1.5 0 1 0 0 3 1.5 1.5 0 0 0 0-3zm3.75 0a1.5 1.5 0 1 0 0 3 1.5 1.5 0 0 0 0-3z"/></defs><use xlink:href="#ba" transform="translate(-429 -9109)"/></symbol><symbol viewBox="0 0 20 12" id="blog-view" xmlns="http://www.w3.org/2000/svg"><defs><path id="ca" d="M379.71 9115.776l-.002.024-.001.013-.002.017-.003.02v.003a.753.753 0 0 1-.203.41c-.204.247-.427.479-.651.707-1.212 1.23-2.602 2.327-4.123 3.122-.973.509-2.012.919-3.09 1.116a8.967 8.967 0 0 1-3.55-.05c-2.04-.444-3.887-1.545-5.503-2.863-.75-.611-1.488-1.28-2.108-2.032-.272-.33-.272-.719 0-1.048.203-.247.426-.48.65-.708 1.212-1.23 2.602-2.326 4.124-3.122.972-.508 2.01-.919 3.089-1.116a8.978 8.978 0 0 1 3.55.05c2.04.444 3.887 1.546 5.503 2.863.75.611 1.488 1.28 2.108 2.033.108.11.18.255.203.409v.003a.07.07 0 0 1 .003.02l.003.018v.012l.002.025.002.037-.001.037zm-9.72-3.834a3.645 3.645 0 1 0 0 7.29 3.645 3.645 0 0 0 0-7.29zm0 5.467a1.822 1.822 0 1 1 0-3.644 1.822 1.822 0 0 1 0 3.644z"/></defs><use xlink:href="#ca" transform="translate(-360 -9110)"/></symbol><symbol viewBox="0 0 18 15" id="busket" xmlns="http://www.w3.org/2000/svg"><defs><path id="da" d="M1501.726 40.663h.001l-2.475 5.5a.824.824 0 0 1-.697.485l-7.128.475.412 1.176h7.761a1.65 1.65 0 1 1-1.65 1.65h-7.7a1.65 1.65 0 1 1-1.65-1.65h1.49l-3.175-9.074h-1.89a.825.825 0 0 1 0-1.65h2.475c.36 0 .663.232.776.553h.003l.48 1.372h12.216a.825.825 0 0 1 .751 1.163zm-12.39.487l1.526 4.357 7.089-.473 1.748-3.884z"/></defs><use xlink:href="#da" transform="translate(-1484 -37)"/></symbol><symbol viewBox="0 0 17 16" id="db" xmlns="http://www.w3.org/2000/svg"><defs><path id="ea" d="M673.742 8569.983a8.026 8.026 0 0 1-.63 3.115 7.96 7.96 0 0 1-1.713 2.543 8.035 8.035 0 0 1-2.543 1.714c-.483.205-.99.36-1.504.466a7.934 7.934 0 0 1-1.61.163 7.951 7.951 0 0 1-4.474-1.367 8.04 8.04 0 0 1-2.16-2.16 7.96 7.96 0 0 1-1.367-4.474 7.99 7.99 0 0 1 3.527-6.632 7.964 7.964 0 0 1 4.474-1.367 8.008 8.008 0 0 1 3.114.629 8.008 8.008 0 0 1 3.519 2.898 7.931 7.931 0 0 1 1.204 2.862c.108.526.163 1.07.163 1.61zm-2.724-4.34c-.013.02-1.108 1.604-3.807 2.705a21.452 21.452 0 0 1 .602 1.344c2.348-.296 4.66.203 4.759.224a6.802 6.802 0 0 0-1.554-4.272zm-5.276-2.491c-.556 0-1.094.067-1.61.192.102.135 1.385 1.84 2.553 3.986 2.58-.966 3.552-2.447 3.57-2.473a6.804 6.804 0 0 0-4.513-1.705zm-1.659.204l.021-.005.001-.001c-.007.002-.015.003-.022.006zm-5.028 5.22c.18.003 3.028.037 6.309-.834a41.158 41.158 0 0 0-2.538-3.937 6.843 6.843 0 0 0-3.77 4.77zm1.605 5.974l-.003-.004s1.87-3.317 5.557-4.509c.09-.029.18-.056.27-.082a22.246 22.246 0 0 0-.555-1.16c-3.517 1.052-6.894.975-7.014.972-.003.072-.006.144-.006.216 0 1.755.663 3.356 1.75 4.567zm7.749 1.726c-.101-.598-.498-2.69-1.46-5.189l-.045.015c-4.052 1.411-5.362 4.268-5.362 4.268s-.063-.047-.153-.12a6.802 6.802 0 0 0 4.353 1.566 6.81 6.81 0 0 0 2.667-.54zm4.078-5.207c-.14-.047-2.052-.651-4.258-.298.897 2.463 1.26 4.467 1.33 4.88a6.836 6.836 0 0 0 2.928-4.582z"/></defs><use xlink:href="#ea" transform="translate(-657 -8562)"/></symbol><symbol viewBox="0 0 28 32" id="doing-creative" xmlns="http://www.w3.org/2000/svg"><defs><path id="fa" d="M1002.5 4200.497h-3a1.5 1.5 0 0 1-1.5-1.5v-6a1.5 1.5 0 0 1 1.5-1.498h3a1.5 1.5 0 0 1 1.5 1.499v6a1.5 1.5 0 0 1-1.5 1.5zm-3-15a1.5 1.5 0 0 1 3 0v4.5h-3zm-8 23h-3a1.5 1.5 0 0 1-1.5-1.499v-6a1.5 1.5 0 0 1 1.5-1.5h3a1.5 1.5 0 0 1 1.5 1.5v6a1.5 1.5 0 0 1-1.5 1.5zm-3-23a1.5 1.5 0 0 1 3 0v12.501h-3zm-8 19h-3a1.5 1.5 0 0 1-1.5-1.5v-6a1.5 1.5 0 0 1 1.5-1.499h3a1.5 1.5 0 0 1 1.5 1.5v6a1.5 1.5 0 0 1-1.5 1.5zm-3-19a1.5 1.5 0 0 1 3 0V4194h-3zm3 29a1.5 1.5 0 1 1-3 0v-8.499h3zm11 0a1.5 1.5 0 1 1-3 0v-4.5h3zm11 0a1.5 1.5 0 1 1-3 0V4202h3z"/></defs><use xlink:href="#fa" transform="translate(-976 -4184)"/></symbol><symbol viewBox="0 0 30 30" id="doing-photo" xmlns="http://www.w3.org/2000/svg"><defs><path id="ga" d="M1006 3958.999c0 .65-.419 1.2-1 1.407v1.683a1.496 1.496 0 1 1-1.908 1.909h-1.684c-.207.58-.756 1-1.408 1-.652 0-1.202-.42-1.408-1h-1.684c-.207.58-.756 1-1.408 1-.652 0-1.202-.42-1.408-1h-1.684c-.207.58-.756 1-1.408 1-.652 0-1.202-.42-1.408-1h-1.684c-.206.58-.756 1-1.408 1-.652 0-1.202-.42-1.408-1h-1.684c-.206.58-.756 1-1.408 1-.652 0-1.202-.42-1.408-1h-1.684c-.207.58-.756 1-1.408 1a1.496 1.496 0 1 1-.5-2.91v-1.682c-.581-.207-1-.756-1-1.407 0-.654.419-1.202 1-1.41v-1.682c-.581-.208-1-.757-1-1.409 0-.651.419-1.201 1-1.408v-1.684c-.581-.206-1-.755-1-1.407s.419-1.202 1-1.41v-1.683c-.581-.206-1-.755-1-1.408 0-.652.419-1.202 1-1.407v-1.685c-.581-.207-1-.756-1-1.408 0-.652.419-1.202 1-1.408v-1.685c-.581-.205-1-.755-1-1.407a1.495 1.495 0 1 1 2.908-.5h1.684c.206-.582.756-1 1.408-1 .652 0 1.201.418 1.408 1h1.684c.206-.582.756-1 1.408-1 .652 0 1.202.418 1.408 1h1.684c.206-.582.756-1 1.408-1 .652 0 1.201.418 1.408 1h1.684c.206-.582.756-1 1.408-1 .652 0 1.201.418 1.408 1h1.684c.206-.582.756-1 1.408-1 .652 0 1.201.418 1.408 1h1.684c.206-.582.756-1 1.408-1a1.5 1.5 0 0 1 1.5 1.5c0 .652-.419 1.202-1 1.407v1.685c.581.206 1 .756 1 1.408 0 .652-.419 1.201-1 1.408v1.685c.581.205 1 .755 1 1.407 0 .653-.419 1.202-1 1.408v1.683a1.5 1.5 0 0 1 1 1.41c0 .652-.419 1.201-1 1.407v1.684c.581.207 1 .757 1 1.408a1.5 1.5 0 0 1-1 1.409v1.683c.581.207 1 .755 1 1.409zm-4-20.002h-22v22.001h22zm-13 16l7-8.498 4.5 7v6h-19l6-6zm-3-6.999a3 3 0 1 1 0-6 3 3 0 0 1 0 6z"/></defs><use xlink:href="#ga" transform="translate(-976 -3935)"/></symbol><symbol viewBox="0 0 32 32" id="doing-web-design" xmlns="http://www.w3.org/2000/svg"><defs><path id="ha" d="M991 4285.998c-8.836 0-16-7.163-16-16 0-8.836 7.164-16 16-16 8.837 0 16 7.164 16 16 0 8.837-7.163 16-16 16zm0-29c-7.18 0-13 5.82-13 13s5.82 13 13 13 13-5.82 13-13-5.82-13-13-13zm0 22.5a9.5 9.5 0 1 1 0-18.998 9.5 9.5 0 0 1 0 18.997zm0-16a6.5 6.5 0 1 0 0 13 6.5 6.5 0 0 0 0-13zm0 9.5a3 3 0 1 1 0-6 3 3 0 0 1 0 6z"/></defs><use xlink:href="#ha" transform="translate(-975 -4254)"/></symbol><symbol viewBox="0 0 12 26" id="fb" xmlns="http://www.w3.org/2000/svg"><defs><path id="ia" d="M463.09 5312.199v4.121s-3.038-.303-3.799.861c-.416.636-.169 2.5-.206 3.838h4.03c-.341 1.564-.585 2.624-.836 3.978h-3.216v12.804h-5.582v-12.754h-2.375v-4.028h2.349c.12-2.946.165-5.864 1.629-7.35 1.644-1.67 3.213-1.47 8.005-1.47z"/></defs><use xlink:href="#ia" transform="translate(-451 -5312)"/></symbol><symbol viewBox="0 0 17 14" id="gplus" xmlns="http://www.w3.org/2000/svg"><defs><path id="ja" d="M611.241 8566.686v2.44h-1v-2.44h-2.5v-.998h2.5v-2.44h1v2.44h2.5v.998zm-6.914-2.47c.887.49 1.407 1.287 1.407 2.33 0 .876-.54 1.566-1.239 2.102-.68.522-.81.742-.81 1.186 0 .378.73 1.024 1.111 1.29 1.115.773 1.444 1.492 1.444 2.692 0 1.497-1.444 3.17-4.115 3.17-2.344 0-4.383-1.121-4.383-2.619 0-1.52 1.866-2.987 4.209-2.987.255 0 .49-.01.731-.01-.32-.307-.574-.688-.574-1.151 0-.275.09-.55.214-.785-.127.009-.257-.012-.391-.012-1.925 0-3.214-1.391-3.214-3.057 0-1.631 1.78-3.133 3.672-3.133h4.22l-.944.983zm-1.93 7.552c-1.62-.017-3.07.97-3.07 2.156 0 1.209 1.17 2.093 2.789 2.093 2.277 0 3.07-.822 3.07-2.031 0-.147-.018-.29-.051-.428-.178-.685-.809-1.024-1.688-1.624a3.592 3.592 0 0 0-1.05-.166zm1.82-5.203c-.188-1.402-1.268-2.528-2.355-2.559-1.087-.032-1.816 1.04-1.628 2.443.187 1.403 1.22 2.566 2.308 2.597 1.086.032 1.862-1.079 1.675-2.481z"/></defs><use xlink:href="#ja" transform="translate(-597 -8563)"/></symbol><symbol viewBox="0 0 495.398 495.398" id="home" xmlns="http://www.w3.org/2000/svg"><path d="M487.083 225.514l-75.08-75.08v-86.73c0-15.682-12.708-28.391-28.413-28.391-15.669 0-28.377 12.709-28.377 28.391v29.941L299.31 37.74c-27.639-27.624-75.694-27.575-103.27.05L8.312 225.514c-11.082 11.104-11.082 29.071 0 40.158 11.087 11.101 29.089 11.101 40.172 0l187.71-187.729c6.115-6.083 16.893-6.083 22.976-.018l187.742 187.747a28.337 28.337 0 0 0 20.081 8.312c7.271 0 14.541-2.764 20.091-8.312 11.086-11.086 11.086-29.053-.001-40.158z"/><path d="M257.561 131.836c-5.454-5.451-14.285-5.451-19.723 0L72.712 296.913a13.977 13.977 0 0 0-4.085 9.877v120.401c0 28.253 22.908 51.16 51.16 51.16h81.754v-126.61h92.299v126.61h81.755c28.251 0 51.159-22.907 51.159-51.159V306.79c0-3.713-1.465-7.271-4.085-9.877L257.561 131.836z"/></symbol><symbol viewBox="0 0 26 26" id="inst" xmlns="http://www.w3.org/2000/svg"><defs><path id="la" d="M632.7 5337.8h-19.2a3.2 3.2 0 0 1-3.2-3.2v-19.2a3.2 3.2 0 0 1 3.2-3.2h19.2a3.2 3.2 0 0 1 3.2 3.2v19.2a3.2 3.2 0 0 1-3.2 3.2zm-9.6-17.76a4.957 4.957 0 0 0-4.498 2.88h-.005l-.022.054a4.908 4.908 0 0 0-.128.322c-.02.052-.04.103-.057.155a4.998 4.998 0 0 0-.095.34c-.014.054-.03.106-.042.16a4.99 4.99 0 0 0-.061.368c-.007.05-.017.099-.023.15a4.96 4.96 0 1 0 9.861 0c-.005-.051-.015-.1-.022-.15a4.985 4.985 0 0 0-.061-.368c-.012-.054-.028-.106-.042-.16a5.004 5.004 0 0 0-.095-.34c-.017-.052-.038-.103-.057-.155a4.916 4.916 0 0 0-.128-.322l-.022-.055h-.005a4.957 4.957 0 0 0-4.498-2.88zm9.92-3.68a1.28 1.28 0 0 0-1.28-1.28h-2.56a1.28 1.28 0 0 0-1.28 1.28v2.56c0 .707.573 1.28 1.28 1.28h2.56a1.28 1.28 0 0 0 1.28-1.28zm0 6.56h-2.36a7.84 7.84 0 0 1-7.56 9.92 7.84 7.84 0 0 1-7.56-9.92h-2.36v10.72c0 .707.573 1.28 1.28 1.28h17.28a1.28 1.28 0 0 0 1.28-1.28z"/></defs><use xlink:href="#la" transform="translate(-610 -5312)"/></symbol><symbol viewBox="0 0 20 26" id="map" xmlns="http://www.w3.org/2000/svg"><defs><path id="ma" d="M960 9322.8s-9.6-10.699-9.6-16 4.298-9.6 9.6-9.6 9.6 4.299 9.6 9.6c0 5.301-9.6 16-9.6 16zm0-22.4a6.4 6.4 0 1 0 0 12.8 6.4 6.4 0 0 0 0-12.8zm0 9.6a3.2 3.2 0 1 1 0-6.4 3.2 3.2 0 0 1 0 6.4z"/></defs><use xlink:href="#ma" transform="translate(-950 -9297)"/></symbol><symbol viewBox="0 0 20 26" id="pt" xmlns="http://www.w3.org/2000/svg"><defs><path id="na" d="M566.05 5328.854c-.208.833-.419 1.706-.637 2.56-.215.842-.405 1.696-.718 2.47-.519 1.281-1.178 2.52-2.043 3.521-.575.667-.453.4-.626.365-.132-.027-.143-.157-.17-.345-.14-1.018-.044-2.195.008-3.34.06-1.303.334-2.387.589-3.47.484-2.063.946-4.087 1.435-6.164.032-.138.12-.366.09-.445-.222-.577-.366-1.095-.429-1.7a5.41 5.41 0 0 1 .14-1.944c.276-1.058.912-1.995 1.893-2.338.624-.216 1.315-.118 1.735.132.432.259.729.667.867 1.246.148.615.039 1.35-.08 1.891-.267 1.219-.618 2.134-.937 3.31-.158.583-.337 1.182-.19 1.812.137.578.438.976.848 1.275.426.31.93.48 1.625.455 1.228-.043 2.081-.828 2.651-1.568.913-1.185 1.465-2.784 1.675-4.686.068-.614.117-1.319.07-2.014-.088-1.284-.49-2.317-1.127-3.117-.606-.762-1.466-1.37-2.512-1.71-1.037-.34-2.472-.452-3.747-.234-2.318.397-3.952 1.714-4.915 3.533a7.079 7.079 0 0 0-.837 3.41c0 1.05.26 1.865.678 2.5.133.201.328.367.458.597.185.326-.028.811-.12 1.164-.11.425-.12 1.012-.617 1.022-.206.004-.464-.146-.638-.243-1.305-.721-2.097-2.033-2.422-3.734a8.935 8.935 0 0 1 0-3.238c.19-.967.544-1.858.937-2.581a9.238 9.238 0 0 1 3.459-3.563c1.116-.66 2.375-1.123 3.907-1.346a16.432 16.432 0 0 1 1.605-.131 9.638 9.638 0 0 1 4.326.809 8.85 8.85 0 0 1 2.98 2.146c.838.915 1.448 1.98 1.834 3.309.202.692.398 1.432.398 2.287 0 .858-.181 1.613-.308 2.368-.474 2.828-1.819 5.141-3.838 6.458a6.636 6.636 0 0 1-1.754.81c-.667.193-1.428.339-2.243.282a4.599 4.599 0 0 1-1.983-.577c-.54-.305-.994-.679-1.316-1.244z"/></defs><use xlink:href="#na" transform="translate(-558 -5312)"/></symbol><symbol viewBox="0 0 18 18" id="search" xmlns="http://www.w3.org/2000/svg"><defs><path id="oa" d="M1561.8 52.15a1.65 1.65 0 0 1-2.817 1.166l-4.836-4.835a6.56 6.56 0 0 1-3.347.919 6.6 6.6 0 1 1 6.6-6.6 6.558 6.558 0 0 1-.92 3.347l4.837 4.836c.298.298.483.71.483 1.167zm-11-14.3a4.95 4.95 0 1 0 0 9.9 4.95 4.95 0 0 0 0-9.9z"/></defs><use xlink:href="#oa" transform="translate(-1544 -36)"/></symbol><symbol viewBox="0 0 32 28" id="services-creative" xmlns="http://www.w3.org/2000/svg"><defs><path id="pa" d="M1220 2333h-9.5v2.5l2 2v.5h-13v-.5l2-2v-2.5h-9.5a1.5 1.5 0 0 1-1.5-1.5v-20a1.5 1.5 0 0 1 1.5-1.5h28a1.5 1.5 0 0 1 1.5 1.5v20a1.5 1.5 0 0 1-1.5 1.5zm-.5-21h-27v17h27zm-16.5 7c.414 0 .79.168 1.06.44l.94.938 2.94-2.939a1.5 1.5 0 0 1 2.121 2.121l-4 4a1.496 1.496 0 0 1-2.122 0l-2-2a1.5 1.5 0 0 1 1.06-2.56z"/></defs><use xlink:href="#pa" transform="translate(-1190 -2310)"/></symbol><symbol viewBox="0 0 32 31" id="services-develop" xmlns="http://www.w3.org/2000/svg"><defs><path id="qa" d="M822 2495.5a1.5 1.5 0 0 1-1.5 1.5 1.49 1.49 0 0 1-1.02-.406l-.003.004-13.439-13.439-.038-.037-13.446 13.447v-.001a1.5 1.5 0 1 1-2.092-2.15l14.457-14.458c.273-.283.656-.46 1.08-.46h.002c.026 0 .052 0 .079.002h.012a2.52 2.52 0 0 1 .072.007c.367.04.694.212.933.468l5.903 5.901v-1.378a1.5 1.5 0 1 1 3 0v4.378l5.598 5.598-.004.004c.25.268.406.625.406 1.02zm-3 2.5v10.5a1.5 1.5 0 0 1-1.5 1.5h-3v-12h-6v12h-14a1.5 1.5 0 0 1-1.5-1.5V2498l13-13zm-15.5 0h-6v6h6z"/></defs><use xlink:href="#qa" transform="translate(-790 -2479)"/></symbol><symbol viewBox="0 0 32 32" id="services-digital" xmlns="http://www.w3.org/2000/svg"><defs><path id="ra" d="M1220.5 2511h-29a1.5 1.5 0 0 1-1.5-1.5v-29a1.5 1.5 0 0 1 1.5-1.5h29a1.5 1.5 0 0 1 1.5 1.5v29a1.5 1.5 0 0 1-1.5 1.5zm-1.5-29h-26v26h26zm-17 1.5a1.5 1.5 0 0 1 0 3h-4.5v4.5a1.5 1.5 0 1 1-3 0v-7.5zm-7.5 15.5a1.5 1.5 0 1 1 3 0v4.5h4.5a1.5 1.5 0 1 1 0 3h-7.5zm15.5-15.5h7.5v7.5a1.5 1.5 0 1 1-3 0v-4.5h-4.5a1.5 1.5 0 1 1 0-3zm0 20h4.5v-4.5a1.5 1.5 0 1 1 3 0v7.5h-7.5a1.5 1.5 0 0 1 0-3z"/></defs><use xlink:href="#ra" transform="translate(-1190 -2479)"/></symbol><symbol viewBox="0 0 32 31" id="services-photo" xmlns="http://www.w3.org/2000/svg"><defs><path id="sa" d="M420.74 2319.503a15.72 15.72 0 0 0-8.243-8.243c1-.787 2.258-1.26 3.629-1.26a5.874 5.874 0 0 1 5.874 5.874 5.846 5.846 0 0 1-1.26 3.629zm-.24 6.497c0 3.852-1.512 7.343-3.963 9.94l2.029 2.028a1.483 1.483 0 0 1-2.097 2.097l-2.18-2.178A14.419 14.419 0 0 1 406 2340.5a14.42 14.42 0 0 1-8.276-2.603l-2.163 2.163a1.5 1.5 0 1 1-2.121-2.121l2.011-2.012c-2.443-2.595-3.951-6.082-3.951-9.927 0-8.008 6.492-14.5 14.5-14.5s14.5 6.492 14.5 14.5zm-14.5-11.5c-6.351 0-11.5 5.148-11.5 11.5 0 6.351 5.149 11.5 11.5 11.5s11.5-5.149 11.5-11.5c0-6.352-5.149-11.5-11.5-11.5zm6 13h-6a1.5 1.5 0 0 1-1.5-1.5v-8a1.5 1.5 0 0 1 3 0v6.5h4.5a1.5 1.5 0 0 1 0 3zm-20.713-7.795A5.967 5.967 0 0 1 390 2316a6 6 0 0 1 6-6c1.4 0 2.685.483 3.706 1.287a16.055 16.055 0 0 0-8.419 8.418z"/></defs><use xlink:href="#sa" transform="translate(-390 -2310)"/></symbol><symbol viewBox="0 0 32 32" id="services-seo" xmlns="http://www.w3.org/2000/svg"><defs><path id="ta" d="M422.065 2504.89l-14.471 5.987a1.493 1.493 0 0 1-1.188 0l-14.47-5.988a1.5 1.5 0 0 1-.936-1.389v-23a1.5 1.5 0 0 1 2.073-1.386l.003.001.013.005 13.911 5.757 13.91-5.757.014-.005.003-.001A1.5 1.5 0 0 1 423 2480.5v23a1.5 1.5 0 0 1-.935 1.39zm-16.565-17.387l-11.5-4.76v19.754l11.5 4.759zm14.5-4.76l-11.5 4.76v19.753l11.5-4.76zm-9.12 6.891l5.5-2.5a1.5 1.5 0 0 1 1.241 2.731l-5.5 2.5a1.5 1.5 0 0 1-1.241-2.731zm0 5.5l5.5-2.5a1.5 1.5 0 0 1 1.241 2.731l-5.5 2.5a1.5 1.5 0 0 1-1.241-2.73zm0 5.5l5.5-2.5a1.5 1.5 0 0 1 1.241 2.731l-5.5 2.5a1.5 1.5 0 0 1-1.241-2.731zM397 2487c.221 0 .431.048.62.134l5.5 2.5a1.5 1.5 0 1 1-1.24 2.731l-5.5-2.5A1.5 1.5 0 0 1 397 2487zm0 5.5c.221 0 .431.048.62.134l5.5 2.5a1.5 1.5 0 1 1-1.24 2.731l-5.5-2.5a1.5 1.5 0 0 1 .62-2.865zm0 5.5c.221 0 .431.048.62.134l5.5 2.5a1.5 1.5 0 1 1-1.24 2.731l-5.5-2.5A1.5 1.5 0 0 1 397 2498z"/></defs><use xlink:href="#ta" transform="translate(-391 -2479)"/></symbol><symbol viewBox="0 0 32 32" id="services-web-design" xmlns="http://www.w3.org/2000/svg"><defs><path id="ua" d="M821.5 2341h-29a1.5 1.5 0 0 1-1.5-1.5v-29a1.5 1.5 0 0 1 1.5-1.5h29a1.5 1.5 0 0 1 1.5 1.5v29a1.5 1.5 0 0 1-1.5 1.5zm-1.5-29h-26v26h26zm-23.785 13.239v-.002l4-2.5v.002a1.49 1.49 0 0 1 .785-.222c.311 0 .6.095.84.258l.006-.01 6.63 4.42 7.639-5.39a1.5 1.5 0 0 1 1.764 2.426l-8.5 6a1.493 1.493 0 0 1-1.74.012l-6.657-4.438-3.135 1.96a1.5 1.5 0 0 1-1.631-2.517z"/></defs><use xlink:href="#ua" transform="translate(-791 -2309)"/></symbol><symbol viewBox="0 0 32 23" id="team" xmlns="http://www.w3.org/2000/svg"><defs><path id="va" d="M555.95 1505.503s0-3.613-2.649-4.927c-1.676-.83-1.03-.194-3.088-1.045-2.058-.85-2.546-1.127-2.546-1.127l-.018-1.948s.771-.583 1.012-2.426c.48.14.643-.561.67-1.01.028-.432.284-1.78-.305-1.66.12-.9.215-1.714.172-2.146-.147-1.512-1.196-3.092-3.845-3.206-2.251.114-3.713 1.695-3.86 3.207-.043.432.043 1.245.164 2.147-.589-.122-.336 1.23-.31 1.661.029.448.188 1.152.67 1.012.24 1.843 1.01 2.43 1.01 2.43l-.019 1.951c.701.166.794.032 2.206.732 3.301 1.638 3.301 6.142 3.301 6.142v.002c0 .591-.417 1.082-.972 1.205h7.412c.55 0 .995-.443.995-.992v-.002zm-17.725-7.901l-.02-2.142s.848-.64 1.112-2.666c.529.153.708-.617.736-1.11.032-.475.313-1.957-.334-1.825.133-.99.236-1.884.19-2.359-.162-1.662-1.316-3.399-4.227-3.525-2.475.128-4.082 1.864-4.244 3.528-.047.473.048 1.367.18 2.359-.646-.135-.368 1.35-.34 1.825.032.492.207 1.266.737 1.113.263 2.024 1.11 2.67 1.11 2.67l-.02 2.152s-.537.327-2.799 1.26c-2.262.935-1.552.193-3.395 1.106-2.912 1.445-2.912 5.417-2.912 5.417H524v.003c0 .602.49 1.09 1.094 1.09h21.142c.604 0 1.093-.488 1.093-1.09v-.003s0-3.972-2.91-5.415c-1.843-.915-1.134-.215-3.396-1.15-2.262-.934-2.798-1.238-2.798-1.238z"/></defs><use xlink:href="#va" transform="translate(-524 -1484)"/></symbol><symbol viewBox="0 0 97.16 97.16" id="time" xmlns="http://www.w3.org/2000/svg"><path d="M48.58 0C21.793 0 0 21.793 0 48.58s21.793 48.58 48.58 48.58 48.58-21.793 48.58-48.58S75.367 0 48.58 0zm0 86.823c-21.087 0-38.244-17.155-38.244-38.243S27.493 10.337 48.58 10.337 86.824 27.492 86.824 48.58 69.667 86.823 48.58 86.823z"/><path d="M73.898 47.08H52.066V20.83a4 4 0 0 0-8 0v30.25a4 4 0 0 0 4 4h25.832a4 4 0 0 0 0-8z"/></symbol><symbol viewBox="0 0 11 16" id="tumblr" xmlns="http://www.w3.org/2000/svg"><defs><path id="xa" d="M700.75 8577.115c-.68.32-1.296.547-1.848.677a7.808 7.808 0 0 1-1.79.195 4.875 4.875 0 0 1-1.717-.276 4.172 4.172 0 0 1-1.431-.79c-.397-.343-.67-.709-.823-1.093-.152-.385-.229-.943-.229-1.676v-5.614h-2.163v-2.267c.625-.204 1.35-.497 1.795-.879.449-.381.806-.84 1.076-1.375.27-.533.456-1.213.557-2.04h2.266v3.704h3.682v2.857h-3.682v4.105c0 .929-.012 1.464.086 1.726.097.263.34.535.607.692.352.212.754.319 1.208.319.807 0 1.608-.264 2.406-.79z"/></defs><use xlink:href="#xa" transform="translate(-690 -8562)"/></symbol><symbol viewBox="0 0 26 22" id="tw" xmlns="http://www.w3.org/2000/svg"><defs><path id="ya" d="M516.513 5314.601c2.034-.036 3.117.705 4.15 1.648.879-.076 2.02-.566 2.692-.908l.653-.357c-.384 1.037-.904 1.85-1.704 2.466-.178.136-.354.321-.577.408v.013c1.14-.011 2.08-.526 2.973-.805v.013c-.469.745-1.104 1.502-1.781 2.044l-.82.651c.015 1.207-.018 2.359-.244 3.373-1.311 5.895-4.787 9.898-10.288 11.612-1.976.615-5.168.868-7.432.306-1.122-.278-2.136-.593-3.087-1.008a12.305 12.305 0 0 1-1.487-.767l-.461-.281c.51.015 1.108.156 1.678.064.517-.084 1.023-.062 1.5-.166 1.188-.261 2.243-.606 3.151-1.137.441-.258 1.11-.56 1.423-.933-.59.01-1.125-.127-1.563-.281-1.7-.6-2.688-1.703-3.332-3.36.515.057 1.998.19 2.345-.102-.648-.036-1.271-.411-1.717-.69-1.367-.855-2.481-2.289-2.473-4.496l.538.255c.344.145.693.222 1.102.307.173.036.52.137.718.063h-.026c-.264-.307-.695-.512-.96-.843-.878-1.09-1.7-2.766-1.18-4.764a6.1 6.1 0 0 1 .564-1.367l.026.012c.102.214.33.371.474.55.448.555 1 1.054 1.563 1.494 1.918 1.5 3.645 2.422 6.42 3.104a9.967 9.967 0 0 0 2.357.307c-.236-.687-.16-1.8.025-2.465.468-1.673 1.483-2.88 2.973-3.525a6.31 6.31 0 0 1 1.166-.359l.64-.076z"/></defs><use xlink:href="#ya" transform="translate(-499 -5314)"/></symbol><symbol viewBox="0 0 17 12" id="youtube" xmlns="http://www.w3.org/2000/svg"><defs><path id="za" d="M643.738 8566.728v6.618c0 1.33-1.101 2.14-2.46 2.14h-10.654c-1.358 0-2.883-.81-2.883-2.14v-6.618c0-1.33 1.525-2.236 2.884-2.236l5.429-.005 5.225.005c1.358 0 2.459.907 2.459 2.236zm-5.557 3.309l-3.507-2.542.031 5.04z"/></defs><use xlink:href="#za" transform="translate(-627 -8564)"/></symbol></svg>